<svg xmlns="http://www.w3.org/2000/svg" width="240" height="144" xmlns:xlink="http://www.w3.org/1999/xlink">
  <defs>
    <rect id="a" width="240" height="144" rx="5"/>
  </defs>
  <g fill="none" fill-rule="evenodd">
    <g>
      <g>
        <mask id="b" fill="#fff">
          <use xlink:href="#a"/>
        </mask>
        <use fill="#36393E" xlink:href="#a"/>
        <g mask="url(#b)">
          <g>
            <path fill="#2E3136" d="M186 0h54v146h-54z"/>
            <g opacity=".80000001" transform="translate(192 12)">
              <rect width="12" height="4" fill="#C3C4C5" fill-opacity=".4" rx="1.5"/>
              <g transform="translate(0 10)">
                <rect width="20" height="4" x="12" y="3" fill="#C3C4C5" fill-opacity=".80000001" rx="1.5"/>
                <circle cx="5" cy="5" r="5" fill="#0084FF" fill-opacity=".8"/>
              </g>
              <g transform="translate(0 26)">
                <rect width="30" height="4" x="12" y="3" fill="#C3C4C5" fill-opacity=".80000001" rx="1.5"/>
                <circle cx="5" cy="5" r="5" fill="#0084FF" fill-opacity=".8"/>
              </g>
              <g transform="translate(0 42)">
                <rect width="20" height="4" x="12" y="3" fill="#C3C4C5" fill-opacity=".80000001" rx="1.5"/>
                <circle cx="5" cy="5" r="5" fill="#0084FF" fill-opacity=".8"/>
              </g>
              <g transform="translate(0 58)">
                <rect width="24" height="4" x="12" y="3" fill="#C3C4C5" fill-opacity=".80000001" rx="1.5"/>
                <circle cx="5" cy="5" r="5" fill="#0084FF" fill-opacity=".8"/>
              </g>
            </g>
            <g opacity=".79999995" transform="translate(192 92)">
              <rect width="12" height="4" fill="#C3C4C5" fill-opacity=".4" rx="1.5"/>
              <g opacity=".4" transform="translate(0 10)">
                <rect width="27" height="4" x="12" y="3" fill="#C3C4C5" fill-opacity=".80000001" rx="1.5"/>
                <circle cx="5" cy="5" r="5" fill="#0084FF" fill-opacity=".8"/>
              </g>
              <g opacity=".4" transform="translate(0 26)">
                <rect width="18" height="4" x="12" y="3" fill="#C3C4C5" fill-opacity=".80000001" rx="1.5"/>
                <circle cx="5" cy="5" r="5" fill="#0084FF" fill-opacity=".8"/>
              </g>
              <g opacity=".4" transform="translate(0 42)">
                <rect width="24" height="4" x="12" y="3" fill="#C3C4C5" fill-opacity=".80000001" rx="1.5"/>
                <circle cx="5" cy="5" r="5" fill="#0084FF" fill-opacity=".8"/>
              </g>
            </g>
          </g>
        </g>
        <g mask="url(#b)">
          <g transform="translate(14 11)">
            <rect width="27" height="5" x="32" y="2" fill="#FFF" rx="2"/>
            <rect width="27" height="5" x="63" y="2" fill="#5E6165" rx="2"/>
            <rect width="117" height="5" x="32" y="15" fill="#C3C4C5" rx="2"/>
            <rect width="18" height="5" x="32" y="25" fill="#C3C4C5" rx="1.5"/>
            <rect width="38" height="5" x="54" y="25" fill="#C3C4C5" rx="1.5"/>
            <circle cx="11" cy="11" r="11" fill="#87909C"/>
          </g>
        </g>
        <g mask="url(#b)">
          <g transform="translate(14 56)">
            <rect width="35" height="5" x="32" y="2" fill="#FFF" rx="2"/>
            <rect width="27" height="5" x="71" y="2" fill="#5E6165" rx="2"/>
            <rect width="77" height="5" x="32" y="15" fill="#0096CF" rx="2"/>
            <rect width="24" height="5" x="38" y="25" fill="#0096CF" rx="2"/>
            <rect width="84" height="5" x="38" y="35" fill="#C3C4C5" rx="2"/>
            <circle cx="11" cy="11" r="11" fill="#87909C"/>
            <path fill="#677279" d="M32 25h2v15h-2z"/>
          </g>
        </g>
        <g mask="url(#b)">
          <g transform="translate(14 111)">
            <rect width="17" height="5" x="32" y="2" fill="#FFF" rx="2"/>
            <rect width="27" height="5" x="53" y="2" fill="#5E6165" rx="2"/>
            <rect width="57" height="5" x="32" y="15" fill="#C3C4C5" rx="2"/>
            <rect width="57" height="5" x="93" y="15" fill="#C3C4C5" rx="2"/>
            <circle cx="11" cy="11" r="11" fill="#87909C"/>
          </g>
        </g>
      </g>
    </g>
  </g>
</svg>
